<svg version="1.1" id="Layer_1" xmlns="http://www.w3.org/2000/svg" xmlns:xlink="http://www.w3.org/1999/xlink" x="0px" y="0px"
	 width="256px" height="256px" viewBox="0 0 256 256" enable-background="new 0 0 256 256" xml:space="preserve">
<g>
	<path fill="#1ED3A3" d="M18,198c0,22.092,17.909,40,40,40h140c22.092,0,40-17.908,40-40V58c0-22.091-17.908-40-40-40H58
		c-22.091,0-40,17.909-40,40V198z"/>
</g>
<g>
	<path fill="#353939" d="M161.461,63.422c0,0-4.249,4.156-4.249,7.086c12,7.18,24.849,20.79,29.573,31.559
		c0,0,3.497,0.096,6.147-1.415c8.023-4.159,10.582-15.027,9.536-23.152c-1.129-8.219-8.406-9.448-11.052-11.81
		c-2.649-2.362-1.887-7.655-11.246-9.73C170.722,53.88,161.461,63.328,161.461,63.422"/>
	<path fill="#E6E7E8" d="M98.727,66.824c0,0,31.088-14.363,63.308,6.333c32.221,20.691,31.084,53.478,31.084,53.478
		s18.991,34.489-13.795,58.673c-32.785,24.194-70.202,15.686-78.233,12.098C92.961,193.818,78.6,76.083,98.727,66.824"/>
	<path fill="#F1F2F2" d="M133.689,62.572c-19.939-2.644-34.868,4.252-34.868,4.252c-20.128,9.165-29.858,36.849-30.614,50.552
		c-0.567,11.429-7.748,13.318-7.937,36.374c-0.38,28.16,32.689,40.068,40.819,43.656c4.25,1.889,16.816,5.2,32.601,4.252
		L133.689,62.572L133.689,62.572z"/>
	<path fill="#353939" d="M118.662,103.204c-11.055-5.861-21.734,2.078-25.039,9.354c-5.198,11.524-11.243,24.095-12.474,26.834
		c-4.344,9.351,5.479,14.929,13.511,12.563c6.993-2.078,17.103-5.574,28.538-16.724
		C134.818,124.082,129.717,109.059,118.662,103.204 M112.708,130.318c-1.037-1.889-3.586-3.119-6.424-3.119
		c-2.267,0-4.25,0.757-5.48,1.984c0.475-2.548,2.08-6.801,6.33-6.421c4.254,0.375,5.668,4.343,5.668,7.181
		C112.708,130.038,112.708,130.13,112.708,130.318"/>
	<path fill="#353939" d="M142.664,135.231c11.524,11.149,21.635,14.646,28.535,16.724c8.034,2.365,17.857-3.116,13.51-12.563
		c-1.225-2.739-7.274-15.211-12.472-26.834c-3.308-7.276-13.986-15.215-25.037-9.354
		C136.24,109.059,131.131,124.082,142.664,135.231 M153.242,129.944c0-2.932,1.419-6.806,5.671-7.181
		c4.249-0.38,5.951,3.873,6.334,6.42c-1.325-1.227-3.311-1.982-5.483-1.982c-2.928,0-5.39,1.328-6.424,3.118
		C153.34,130.13,153.242,130.038,153.242,129.944"/>
	<path fill="#F1F2F2" d="M156.264,188.997c-10.575,4.25-26.447,6.712-45.255,1.511c-30.991-8.598-15.306-49.132,19.936-49.132
		C166.286,141.469,188.019,176.237,156.264,188.997"/>
	<path fill="#FFFFFF" d="M133.689,193.436v-51.967c-0.854,0-1.798-0.093-2.647-0.093c-35.245,0-51.025,40.534-19.94,49.132
		C119.23,192.773,126.787,193.63,133.689,193.436"/>
	<path fill="#353939" d="M160.138,167.173c-0.465,2.829-3.962,6.324-12.187,4.813c-6.048-1.038-9.538-4.914-10.961-6.896
		c2.272-0.378,3.499-2.45,5.858-4.538c2.649-2.36,5.2-3.301,5.667-5.663c0.475-2.363-0.19-5.012-6.229-6.05
		c-5.96-0.947-5.297,3.311-13.135,0.287c-7.847-3.024-9.641,2.737-9.453,6.139c0.191,3.498,5.766,5.287,9.829,7.747
		c1.603,1.037,2.736,1.61,3.399,1.988c-1.414,1.985-4.911,5.95-11.055,6.987c-8.218,1.513-11.623-1.985-12.189-4.812
		c-0.471-2.837-3.115,0.662-0.564,4.341c2.55,3.688,9.636,7.848,17.479,3.874c5.293-2.641,7.366-5.29,8.316-7.748
		c0.941,2.559,2.927,5.106,8.312,7.748c7.848,3.974,14.837-0.278,17.485-3.874C163.263,167.835,160.612,164.335,160.138,167.173"/>
	<path fill="#353939" d="M70.569,101.31c4.725,0.288,8.693-1.794,9.542-3.682c0.376-0.944,0.376-1.607-0.094-2.174
		c1.132-0.944,1.227-2.268,0.564-4.349c-0.188-0.564-0.564-1.7-0.376-2.075c0.094-0.188,0.663-0.38,1.513-0.474
		c0.375-0.094,0.849-0.094,1.131-0.189c1.231-0.188,2.08-0.282,2.269-1.038c0.187-0.755-0.376-1.325-1.037-1.893
		c-0.569-0.469-1.137-0.849-1.607-1.226c-0.662-0.474-1.419-1.042-1.419-1.323c0.095-0.38,0.282-0.663,1.133-0.663
		c0.568,0,1.418,0.188,2.459,0.569c0.657,0.283,1.227,0.376,1.701,0.376c0.755,0,1.225-0.282,1.417-0.563
		c0.565-0.568,0.565-1.418,0.565-1.986c0.661,0.094,1.798,0.474,2.647,0.849c0.755,0.381,1.414,0.475,1.982,0.475
		c1.137,0,1.795-0.662,1.892-1.799c0-0.281,0-0.469,0.094-0.563c0.094,0,0.094,0,0.189,0c0.849-0.094,2.549-0.943,2.644-2.742
		c0-0.094,0-0.094,0-0.094c0.191,0,0.286,0.094,0.474,0.094c0.187,0,0.474,0.095,0.755,0.095c0.944,0,2.362-0.188,3.212-1.132
		c0.568-0.662,0.852-1.606,0.757-2.742c0-0.093,0-0.093,0-0.188c-0.283-5.194-2.456-17.668-17.573-19.559
		c-1.137-0.188-2.269-0.188-3.405-0.188c-10.96,0-19.367,6.991-24.847,20.788c-3.404,8.595-3.876,19.653,4.911,24.848
		c1.133,0.662,2.268,1.229,3.495,1.605l0,0"/>
</g>
</svg>
